<svg width="696" height="800" viewBox="0 0 696 800" fill="none" xmlns="http://www.w3.org/2000/svg">
<path d="M675.65 216.16V311.707C636.893 308.346 598.833 299.003 564.224 282.581L564.061 282.504L563.897 282.43C546.399 274.509 529.79 264.167 512.568 252.909L481.71 232.738L481.625 269.604C481.548 302.854 481.57 336.023 481.592 369.137C481.634 433.119 481.676 496.896 481.006 560.653C478.531 603.565 464.322 646.116 439.585 681.168L439.492 681.299L439.402 681.431C399.386 740.101 329.69 778.414 258.591 779.603L258.187 779.61L257.784 779.633C214.445 782.11 170.716 770.288 133.159 748.147C71.3024 711.672 27.7937 644.823 21.3576 573.632C20.6008 557.68 20.3509 541.975 20.9612 526.762C26.5971 468.671 55.4631 413.034 100.006 375.282L100.109 375.195L100.21 375.107C146.93 334.418 210.831 313.448 272.138 319.9C272.197 342.263 271.817 364.236 271.432 386.431C271.207 399.442 270.98 412.53 270.84 425.817C239.511 421.752 206.078 427.694 178.929 446.441C154.213 462.548 135.649 486.898 125.893 514.287C118.44 532.919 119.25 553.454 119.842 568.484C119.94 570.966 120.032 573.297 120.08 575.446L120.107 576.663L120.282 577.868C129.546 641.811 190.331 696.205 257.74 690.688C302.026 689.922 343.488 664.391 366.098 627.533L366.28 627.237L366.451 626.934C366.93 626.089 367.449 625.19 367.997 624.24C373.553 614.616 382.121 599.773 382.708 582.514C385.116 538.518 385.071 494.419 385.026 450.914C385.01 434.903 384.994 418.974 385.1 403.159L385.1 403.113L385.1 403.066C385.199 354.776 385.175 306.597 385.152 258.481C385.113 179.031 385.074 99.7538 385.586 20.4351C403.895 20.2688 422.031 20.2453 440.231 20.2217C452.672 20.2056 465.143 20.1894 477.72 20.1275C483.729 68.7494 503.398 117.615 540.359 153.367C577.511 190.168 627.364 208.385 675.65 216.16Z" stroke="#261000" stroke-width="40"/>
</svg>
